<svg width="579" height="138" viewBox="0 0 579 138" fill="none" xmlns="http://www.w3.org/2000/svg">
<path d="M1.95 60C2.412 60 2.874 59.538 3.336 58.614C3.798 57.69 4.029 56.172 4.029 54.06V6.54C4.029 4.428 3.798 2.943 3.336 2.085C2.874 1.161 2.412 0.665997 1.95 0.599998H21.354C20.892 0.599998 20.43 1.062 19.968 1.986C19.506 2.91 19.275 4.461 19.275 6.639V21.786C19.275 23.238 19.473 24.096 19.869 24.36C20.265 24.624 21.42 24.756 23.334 24.756H24.324C26.238 24.756 28.35 24.096 30.66 22.776C33.036 21.456 35.181 19.476 37.095 16.836C39.009 14.13 40.329 10.731 41.055 6.639C41.451 4.461 41.484 2.91 41.154 1.986C40.89 1.062 40.527 0.599998 40.065 0.599998H65.31C64.65 0.599998 63.66 1.062 62.34 1.986C61.02 2.91 59.667 4.461 58.281 6.639C56.565 9.345 55.047 11.622 53.727 13.47C52.407 15.252 51.153 16.803 49.965 18.123C48.843 19.443 47.589 20.763 46.203 22.083C44.421 23.733 42.771 25.053 41.253 26.043C39.801 26.967 38.514 27.627 37.392 28.023V28.32C38.976 28.65 40.725 29.244 42.639 30.102C44.553 30.96 46.731 32.379 49.173 34.359C52.473 36.999 55.146 39.87 57.192 42.972C59.304 46.008 61.482 49.374 63.726 53.07C65.244 55.512 66.63 57.294 67.884 58.416C69.138 59.472 70.095 60 70.755 60H45.807C46.533 60 47.127 59.571 47.589 58.713C48.051 57.855 47.919 56.469 47.193 54.555C46.137 51.585 44.85 48.945 43.332 46.635C41.814 44.259 40.098 42.279 38.184 40.695C36.27 39.045 34.158 37.824 31.848 37.032C29.538 36.174 27.063 35.745 24.423 35.745H23.334C21.288 35.745 20.1 35.91 19.77 36.24C19.44 36.504 19.275 37.428 19.275 39.012V54.06C19.275 56.172 19.506 57.69 19.968 58.614C20.43 59.538 20.892 60 21.354 60H1.95ZM70.5686 60C70.8986 60 71.3936 59.538 72.0536 58.614C72.7796 57.69 73.6046 56.139 74.5286 53.961C74.9906 52.971 75.7166 51.288 76.7066 48.912C77.7626 46.47 78.9506 43.665 80.2706 40.497C81.6566 37.263 83.0756 33.897 84.5276 30.399C86.0456 26.901 87.4646 23.535 88.7846 20.301C90.1706 17.067 91.3586 14.229 92.3486 11.787C93.4046 9.345 94.1306 7.596 94.5266 6.54C95.3846 4.428 95.8466 2.91 95.9126 1.986C95.9786 1.062 95.8466 0.599998 95.5166 0.599998H117.099C116.835 0.599998 116.736 1.062 116.802 1.986C116.868 2.844 117.33 4.362 118.188 6.54C118.584 7.596 119.277 9.345 120.267 11.787C121.257 14.163 122.412 16.968 123.732 20.202C125.052 23.37 126.438 26.703 127.89 30.201C129.342 33.699 130.728 37.065 132.048 40.299C133.368 43.467 134.556 46.272 135.612 48.714C136.668 51.156 137.427 52.905 137.889 53.961C138.879 56.139 139.836 57.69 140.76 58.614C141.684 59.538 142.377 60 142.839 60H120.366C120.894 59.934 121.323 59.439 121.653 58.515C122.049 57.525 122.049 56.007 121.653 53.961C121.587 53.499 121.521 53.136 121.455 52.872C121.389 52.542 121.257 52.08 121.059 51.486C120.795 50.496 120.498 49.803 120.168 49.407C119.838 48.945 119.277 48.681 118.485 48.615C117.759 48.549 116.538 48.516 114.822 48.516H97.7936C96.0116 48.516 94.6916 48.582 93.8336 48.714C92.9756 48.78 92.3816 49.011 92.0516 49.407C91.7216 49.803 91.4576 50.463 91.2596 51.387C91.1936 51.717 91.0946 52.146 90.9626 52.674C90.8966 53.202 90.8306 53.631 90.7646 53.961C90.3026 56.073 90.1706 57.591 90.3686 58.515C90.6326 59.439 90.9626 59.934 91.3586 60H70.5686ZM100.368 37.626H111.951C113.865 37.626 114.921 37.461 115.119 37.131C115.317 36.801 115.218 36.075 114.822 34.953C113.964 32.841 113.106 30.696 112.248 28.518C111.39 26.274 110.565 24.096 109.773 21.984C109.047 19.872 108.387 17.925 107.793 16.143C107.265 14.295 106.803 12.744 106.407 11.49H106.209C105.285 13.932 104.328 16.506 103.338 19.212C102.348 21.918 101.424 24.426 100.566 26.736C99.7076 29.046 99.0146 30.96 98.4866 32.478C97.9586 33.93 97.6946 34.656 97.6946 34.656C97.2326 35.712 97.0676 36.471 97.1996 36.933C97.3316 37.395 98.3876 37.626 100.368 37.626ZM148.132 60C148.594 60 149.023 59.538 149.419 58.614C149.881 57.69 150.112 56.172 150.112 54.06V6.54C150.112 4.428 149.881 2.943 149.419 2.085C148.957 1.161 148.495 0.665997 148.033 0.599998H180.505C186.115 0.599998 190.636 1.425 194.068 3.075C197.566 4.659 200.14 6.969 201.79 10.005C203.44 12.975 204.265 16.539 204.265 20.697C204.265 24.921 203.44 28.584 201.79 31.686C200.14 34.722 197.566 37.065 194.068 38.715C190.636 40.299 186.115 41.091 180.505 41.091H165.358V54.06C165.358 56.172 165.589 57.69 166.051 58.614C166.513 59.538 166.975 60 167.437 60H148.132ZM169.417 30.201H174.367C178.261 30.201 181.264 29.871 183.376 29.211C185.554 28.551 187.072 27.528 187.93 26.142C188.788 24.756 189.217 22.941 189.217 20.697C189.217 18.519 188.755 16.77 187.831 15.45C186.973 14.13 185.521 13.206 183.475 12.678C181.495 12.084 178.789 11.787 175.357 11.787H169.417C167.371 11.787 166.183 11.919 165.853 12.183C165.523 12.381 165.358 13.14 165.358 14.46V27.429C165.358 28.749 165.523 29.541 165.853 29.805C166.183 30.069 167.371 30.201 169.417 30.201ZM212.811 60C213.273 60 213.702 59.538 214.098 58.614C214.56 57.69 214.791 56.172 214.791 54.06V6.54C214.791 4.428 214.56 2.943 214.098 2.085C213.636 1.161 213.174 0.665997 212.712 0.599998H245.184C250.794 0.599998 255.315 1.425 258.747 3.075C262.245 4.659 264.819 6.969 266.469 10.005C268.119 12.975 268.944 16.539 268.944 20.697C268.944 24.921 268.119 28.584 266.469 31.686C264.819 34.722 262.245 37.065 258.747 38.715C255.315 40.299 250.794 41.091 245.184 41.091H230.037V54.06C230.037 56.172 230.268 57.69 230.73 58.614C231.192 59.538 231.654 60 232.116 60H212.811ZM234.096 30.201H239.046C242.94 30.201 245.943 29.871 248.055 29.211C250.233 28.551 251.751 27.528 252.609 26.142C253.467 24.756 253.896 22.941 253.896 20.697C253.896 18.519 253.434 16.77 252.51 15.45C251.652 14.13 250.2 13.206 248.154 12.678C246.174 12.084 243.468 11.787 240.036 11.787H234.096C232.05 11.787 230.862 11.919 230.532 12.183C230.202 12.381 230.037 13.14 230.037 14.46V27.429C230.037 28.749 230.202 29.541 230.532 29.805C230.862 30.069 232.05 30.201 234.096 30.201ZM264.411 60C264.741 60 265.236 59.538 265.896 58.614C266.622 57.69 267.447 56.139 268.371 53.961C268.833 52.971 269.559 51.288 270.549 48.912C271.605 46.47 272.793 43.665 274.113 40.497C275.499 37.263 276.918 33.897 278.37 30.399C279.888 26.901 281.307 23.535 282.627 20.301C284.013 17.067 285.201 14.229 286.191 11.787C287.247 9.345 287.973 7.596 288.369 6.54C289.227 4.428 289.689 2.91 289.755 1.986C289.821 1.062 289.689 0.599998 289.359 0.599998H310.941C310.677 0.599998 310.578 1.062 310.644 1.986C310.71 2.844 311.172 4.362 312.03 6.54C312.426 7.596 313.119 9.345 314.109 11.787C315.099 14.163 316.254 16.968 317.574 20.202C318.894 23.37 320.28 26.703 321.732 30.201C323.184 33.699 324.57 37.065 325.89 40.299C327.21 43.467 328.398 46.272 329.454 48.714C330.51 51.156 331.269 52.905 331.731 53.961C332.721 56.139 333.678 57.69 334.602 58.614C335.526 59.538 336.219 60 336.681 60H314.208C314.736 59.934 315.165 59.439 315.495 58.515C315.891 57.525 315.891 56.007 315.495 53.961C315.429 53.499 315.363 53.136 315.297 52.872C315.231 52.542 315.099 52.08 314.901 51.486C314.637 50.496 314.34 49.803 314.01 49.407C313.68 48.945 313.119 48.681 312.327 48.615C311.601 48.549 310.38 48.516 308.664 48.516H291.636C289.854 48.516 288.534 48.582 287.676 48.714C286.818 48.78 286.224 49.011 285.894 49.407C285.564 49.803 285.3 50.463 285.102 51.387C285.036 51.717 284.937 52.146 284.805 52.674C284.739 53.202 284.673 53.631 284.607 53.961C284.145 56.073 284.013 57.591 284.211 58.515C284.475 59.439 284.805 59.934 285.201 60H264.411ZM294.21 37.626H305.793C307.707 37.626 308.763 37.461 308.961 37.131C309.159 36.801 309.06 36.075 308.664 34.953C307.806 32.841 306.948 30.696 306.09 28.518C305.232 26.274 304.407 24.096 303.615 21.984C302.889 19.872 302.229 17.925 301.635 16.143C301.107 14.295 300.645 12.744 300.249 11.49H300.051C299.127 13.932 298.17 16.506 297.18 19.212C296.19 21.918 295.266 24.426 294.408 26.736C293.55 29.046 292.857 30.96 292.329 32.478C291.801 33.93 291.537 34.656 291.537 34.656C291.075 35.712 290.91 36.471 291.042 36.933C291.174 37.395 292.23 37.626 294.21 37.626ZM341.876 60C342.338 60 342.8 59.538 343.262 58.614C343.724 57.69 343.955 56.172 343.955 54.06V6.54C343.955 4.428 343.724 2.943 343.262 2.085C342.8 1.161 342.338 0.665997 341.876 0.599998H361.28C360.818 0.599998 360.356 1.062 359.894 1.986C359.432 2.91 359.201 4.461 359.201 6.639V45.942C359.201 47.394 359.366 48.285 359.696 48.615C360.092 48.879 361.28 49.011 363.26 49.011H387.119C390.947 49.011 394.016 48.582 396.326 47.724C398.702 46.8 400.253 45.909 400.979 45.051L398.009 56.931V60H341.876ZM406.941 60C407.403 60 407.865 59.538 408.327 58.614C408.789 57.69 409.02 56.172 409.02 54.06V6.54C409.02 4.428 408.789 2.943 408.327 2.085C407.865 1.161 407.403 0.665997 406.941 0.599998H426.345C425.883 0.599998 425.421 1.062 424.959 1.986C424.497 2.91 424.266 4.461 424.266 6.639V45.942C424.266 47.394 424.431 48.285 424.761 48.615C425.157 48.879 426.345 49.011 428.325 49.011H452.184C456.012 49.011 459.081 48.582 461.391 47.724C463.767 46.8 465.318 45.909 466.044 45.051L463.074 56.931V60H406.941ZM475.998 60C476.526 60 477.087 59.571 477.681 58.713C478.275 57.789 478.572 56.238 478.572 54.06L478.473 33.666C476.625 31.356 474.612 28.881 472.434 26.241C470.256 23.601 468.111 20.994 465.999 18.42C463.887 15.846 461.973 13.536 460.257 11.49C458.607 9.378 457.32 7.794 456.396 6.738C454.548 4.494 452.997 2.91 451.743 1.986C450.555 1.062 449.73 0.599998 449.268 0.599998H472.632C472.17 0.665997 472.005 1.161 472.137 2.085C472.269 3.009 473.094 4.56 474.612 6.738C475.338 7.728 476.163 8.949 477.087 10.401C478.077 11.787 479.1 13.305 480.156 14.955C481.212 16.605 482.235 18.222 483.225 19.806C484.281 21.39 485.238 22.842 486.096 24.162H486.195C487.185 22.71 488.175 21.258 489.165 19.806C490.155 18.288 491.145 16.803 492.135 15.351C493.125 13.899 494.115 12.447 495.105 10.995C496.095 9.477 497.085 7.992 498.075 6.54C499.593 4.296 500.418 2.745 500.55 1.887C500.682 1.029 500.517 0.599998 500.055 0.599998H522.825C522.429 0.665997 521.67 1.128 520.548 1.986C519.426 2.844 517.974 4.329 516.192 6.441C515.202 7.563 513.816 9.18 512.034 11.292C510.318 13.338 508.404 15.681 506.292 18.321C504.18 20.895 502.002 23.535 499.758 26.241C497.58 28.881 495.567 31.356 493.719 33.666V54.06C493.719 56.238 493.917 57.789 494.313 58.713C494.775 59.571 495.237 60 495.699 60H475.998ZM34.026 137.99C26.832 137.99 20.463 137.66 14.919 137C9.375 136.34 5.382 135.68 2.94 135.02V132.05L0.96 119.477C2.214 120.533 4.293 121.655 7.197 122.843C10.101 124.031 13.83 125.054 18.384 125.912C22.938 126.704 28.218 127.1 34.224 127.1C37.92 127.1 40.758 126.869 42.738 126.407C44.718 125.879 46.071 125.153 46.797 124.229C47.523 123.305 47.886 122.216 47.886 120.962C47.886 119.378 47.358 118.157 46.302 117.299C45.246 116.375 43.332 115.616 40.56 115.022C37.854 114.428 33.993 113.801 28.977 113.141C22.971 112.349 17.955 111.26 13.929 109.874C9.903 108.488 6.9 106.541 4.92 104.033C2.94 101.459 1.95 98.06 1.95 93.836C1.95 90.404 2.841 87.401 4.623 84.827C6.405 82.253 9.276 80.24 13.236 78.788C17.196 77.336 22.443 76.61 28.977 76.61C35.841 76.61 41.715 76.94 46.599 77.6C51.483 78.26 54.849 78.92 56.697 79.58V82.55L59.667 93.44C58.017 92.582 55.641 91.691 52.539 90.767C49.437 89.843 45.84 89.084 41.748 88.49C37.656 87.83 33.234 87.5 28.482 87.5C25.512 87.5 23.202 87.764 21.552 88.292C19.902 88.754 18.714 89.447 17.988 90.371C17.328 91.229 16.998 92.318 16.998 93.638C16.998 95.222 17.592 96.509 18.78 97.499C20.034 98.423 22.047 99.182 24.819 99.776C27.591 100.37 31.32 100.931 36.006 101.459C43.2 102.251 48.744 103.439 52.638 105.023C56.532 106.607 59.205 108.653 60.657 111.161C62.175 113.603 62.934 116.573 62.934 120.071C62.934 123.107 62.373 125.78 61.251 128.09C60.129 130.334 58.38 132.182 56.004 133.634C53.694 135.086 50.691 136.175 46.995 136.901C43.365 137.627 39.042 137.99 34.026 137.99ZM93.6294 137C94.1574 137 94.7184 136.571 95.3124 135.713C95.9064 134.789 96.2034 133.238 96.2034 131.06L96.1044 110.666C94.2564 108.356 92.2434 105.881 90.0654 103.241C87.8874 100.601 85.7424 97.994 83.6304 95.42C81.5184 92.846 79.6044 90.536 77.8884 88.49C76.2384 86.378 74.9514 84.794 74.0274 83.738C72.1794 81.494 70.6284 79.91 69.3744 78.986C68.1864 78.062 67.3614 77.6 66.8994 77.6H90.2634C89.8014 77.666 89.6364 78.161 89.7684 79.085C89.9004 80.009 90.7254 81.56 92.2434 83.738C92.9694 84.728 93.7944 85.949 94.7184 87.401C95.7084 88.787 96.7314 90.305 97.7874 91.955C98.8434 93.605 99.8664 95.222 100.856 96.806C101.912 98.39 102.869 99.842 103.727 101.162H103.826C104.816 99.71 105.806 98.258 106.796 96.806C107.786 95.288 108.776 93.803 109.766 92.351C110.756 90.899 111.746 89.447 112.736 87.995C113.726 86.477 114.716 84.992 115.706 83.54C117.224 81.296 118.049 79.745 118.181 78.887C118.313 78.029 118.148 77.6 117.686 77.6H140.456C140.06 77.666 139.301 78.128 138.179 78.986C137.057 79.844 135.605 81.329 133.823 83.441C132.833 84.563 131.447 86.18 129.665 88.292C127.949 90.338 126.035 92.681 123.923 95.321C121.811 97.895 119.633 100.535 117.389 103.241C115.211 105.881 113.198 108.356 111.35 110.666V131.06C111.35 133.238 111.548 134.789 111.944 135.713C112.406 136.571 112.868 137 113.33 137H93.6294ZM145.423 137C145.885 137 146.347 136.538 146.809 135.614C147.271 134.69 147.502 133.172 147.502 131.06V83.54C147.502 81.428 147.271 79.943 146.809 79.085C146.347 78.161 145.885 77.666 145.423 77.6H164.827C164.365 77.6 164.233 78.062 164.431 78.986C164.695 79.91 165.784 81.494 167.698 83.738C168.226 84.266 169.084 85.256 170.272 86.708C171.526 88.094 173.011 89.777 174.727 91.757C176.443 93.737 178.258 95.882 180.172 98.192C182.152 100.502 184.132 102.812 186.112 105.122C188.158 107.432 190.105 109.643 191.953 111.755H192.052V83.54C192.052 81.428 191.821 79.943 191.359 79.085C190.897 78.161 190.435 77.666 189.973 77.6H209.377C208.915 77.6 208.453 78.062 207.991 78.986C207.529 79.91 207.298 81.461 207.298 83.639V131.06C207.298 133.172 207.529 134.69 207.991 135.614C208.453 136.538 208.915 137 209.377 137H192.349C192.745 137 192.778 136.538 192.448 135.614C192.184 134.69 191.161 133.106 189.379 130.862C188.455 129.674 187.234 128.156 185.716 126.308C184.198 124.394 182.482 122.282 180.568 119.972C178.72 117.662 176.773 115.253 174.727 112.745C172.681 110.237 170.635 107.795 168.589 105.419C166.609 102.977 164.761 100.733 163.045 98.687H162.748V131.06C162.748 133.172 162.979 134.69 163.441 135.614C163.903 136.538 164.365 137 164.827 137H145.423ZM219.286 137C219.748 137 220.21 136.538 220.672 135.614C221.134 134.69 221.365 133.172 221.365 131.06V83.54C221.365 81.428 221.134 79.943 220.672 79.085C220.21 78.161 219.748 77.666 219.286 77.6H250.372C256.18 77.6 261.064 78.161 265.024 79.283C268.984 80.405 272.152 81.956 274.528 83.936C276.97 85.916 278.818 88.193 280.072 90.767C281.326 93.275 282.151 95.948 282.547 98.786C283.009 101.624 283.24 104.495 283.24 107.399C283.24 110.039 283.009 112.778 282.547 115.616C282.151 118.388 281.293 121.061 279.973 123.635C278.719 126.143 276.871 128.42 274.429 130.466C272.053 132.446 268.885 134.03 264.925 135.218C261.031 136.406 256.18 137 250.372 137H219.286ZM240.571 126.011H244.63C250.306 126.011 254.86 125.549 258.292 124.625C261.724 123.635 264.232 121.853 265.816 119.279C267.4 116.705 268.192 112.976 268.192 108.092V106.31C268.192 101.162 267.466 97.367 266.014 94.925C264.562 92.417 262.12 90.767 258.688 89.975C255.256 89.183 250.57 88.787 244.63 88.787H240.571C238.657 88.787 237.502 88.919 237.106 89.183C236.776 89.381 236.611 90.173 236.611 91.559V123.041C236.611 124.493 236.776 125.351 237.106 125.615C237.502 125.879 238.657 126.011 240.571 126.011ZM292.182 137C292.644 137 293.073 136.571 293.469 135.713C293.931 134.789 294.162 133.238 294.162 131.06V83.54C294.162 81.428 293.931 79.91 293.469 78.986C293.073 78.062 292.644 77.6 292.182 77.6H311.289C310.827 77.6 310.365 78.062 309.903 78.986C309.441 79.844 309.21 81.395 309.21 83.639V131.06C309.21 133.172 309.441 134.69 309.903 135.614C310.365 136.538 310.827 137 311.289 137H292.182ZM354.153 137.99C342.801 137.99 334.287 135.548 328.611 130.664C323.001 125.714 320.196 117.926 320.196 107.3C320.196 101.162 321.351 95.816 323.661 91.262C325.971 86.642 329.634 83.045 334.65 80.471C339.666 77.897 346.167 76.61 354.153 76.61C360.423 76.61 365.637 76.94 369.795 77.6C373.953 78.26 376.758 78.92 378.21 79.58V82.55L380.19 93.44C378.936 92.582 377.055 91.691 374.547 90.767C372.105 89.843 369.168 89.084 365.736 88.49C362.304 87.83 358.509 87.5 354.351 87.5C349.797 87.5 346.101 88.226 343.263 89.678C340.491 91.13 338.445 93.341 337.125 96.311C335.871 99.215 335.244 102.878 335.244 107.3C335.244 111.722 335.871 115.385 337.125 118.289C338.445 121.193 340.689 123.371 343.857 124.823C347.091 126.275 351.546 127.001 357.222 127.001C362.898 127.001 367.617 126.209 371.379 124.625C375.207 123.041 377.814 121.523 379.2 120.071V123.041L380.19 133.04C379.068 134.096 376.329 135.185 371.973 136.307C367.683 137.429 361.743 137.99 354.153 137.99ZM383.907 137C384.237 137 384.732 136.538 385.392 135.614C386.118 134.69 386.943 133.139 387.867 130.961C388.329 129.971 389.055 128.288 390.045 125.912C391.101 123.47 392.289 120.665 393.609 117.497C394.995 114.263 396.414 110.897 397.866 107.399C399.384 103.901 400.803 100.535 402.123 97.301C403.509 94.067 404.697 91.229 405.687 88.787C406.743 86.345 407.469 84.596 407.865 83.54C408.723 81.428 409.185 79.91 409.251 78.986C409.317 78.062 409.185 77.6 408.855 77.6H430.437C430.173 77.6 430.074 78.062 430.14 78.986C430.206 79.844 430.668 81.362 431.526 83.54C431.922 84.596 432.615 86.345 433.605 88.787C434.595 91.163 435.75 93.968 437.07 97.202C438.39 100.37 439.776 103.703 441.228 107.201C442.68 110.699 444.066 114.065 445.386 117.299C446.706 120.467 447.894 123.272 448.95 125.714C450.006 128.156 450.765 129.905 451.227 130.961C452.217 133.139 453.174 134.69 454.098 135.614C455.022 136.538 455.715 137 456.177 137H433.704C434.232 136.934 434.661 136.439 434.991 135.515C435.387 134.525 435.387 133.007 434.991 130.961C434.925 130.499 434.859 130.136 434.793 129.872C434.727 129.542 434.595 129.08 434.397 128.486C434.133 127.496 433.836 126.803 433.506 126.407C433.176 125.945 432.615 125.681 431.823 125.615C431.097 125.549 429.876 125.516 428.16 125.516H411.132C409.35 125.516 408.03 125.582 407.172 125.714C406.314 125.78 405.72 126.011 405.39 126.407C405.06 126.803 404.796 127.463 404.598 128.387C404.532 128.717 404.433 129.146 404.301 129.674C404.235 130.202 404.169 130.631 404.103 130.961C403.641 133.073 403.509 134.591 403.707 135.515C403.971 136.439 404.301 136.934 404.697 137H383.907ZM413.706 114.626H425.289C427.203 114.626 428.259 114.461 428.457 114.131C428.655 113.801 428.556 113.075 428.16 111.953C427.302 109.841 426.444 107.696 425.586 105.518C424.728 103.274 423.903 101.096 423.111 98.984C422.385 96.872 421.725 94.925 421.131 93.143C420.603 91.295 420.141 89.744 419.745 88.49H419.547C418.623 90.932 417.666 93.506 416.676 96.212C415.686 98.918 414.762 101.426 413.904 103.736C413.046 106.046 412.353 107.96 411.825 109.478C411.297 110.93 411.033 111.656 411.033 111.656C410.571 112.712 410.406 113.471 410.538 113.933C410.67 114.395 411.726 114.626 413.706 114.626ZM468.585 137C469.047 137 469.509 136.538 469.971 135.614C470.433 134.69 470.664 133.172 470.664 131.06V91.46C470.664 90.008 470.499 89.15 470.169 88.886C469.839 88.622 468.684 88.49 466.704 88.49H459.477C455.649 88.49 452.547 88.919 450.171 89.777C447.861 90.569 446.343 91.328 445.617 92.054L447.597 80.57V77.6H508.977V80.57L510.957 92.054C510.231 91.328 508.68 90.569 506.304 89.777C503.994 88.919 500.925 88.49 497.097 88.49H489.969C487.923 88.49 486.735 88.622 486.405 88.886C486.075 89.15 485.91 90.008 485.91 91.46V131.06C485.91 133.172 486.141 134.69 486.603 135.614C487.065 136.538 487.527 137 487.989 137H468.585ZM516.866 137C517.328 137 517.79 136.538 518.252 135.614C518.714 134.69 518.945 133.172 518.945 131.06V83.54C518.945 81.428 518.714 79.943 518.252 79.085C517.79 78.161 517.328 77.666 516.866 77.6H574.682V80.57L576.662 92.054C575.012 91.328 572.108 90.569 567.95 89.777C563.792 88.919 558.776 88.49 552.902 88.49H538.25C536.27 88.49 535.082 88.655 534.686 88.985C534.356 89.249 534.191 90.074 534.191 91.46V98.786C534.191 100.238 534.356 101.096 534.686 101.36C535.082 101.624 536.237 101.756 538.151 101.756H552.407C556.235 101.756 559.304 101.558 561.614 101.162C563.99 100.7 565.541 100.238 566.267 99.776C566.003 101.03 565.706 102.482 565.376 104.132C565.046 105.782 564.782 107.366 564.584 108.884C564.386 110.402 564.287 111.656 564.287 112.646H538.151C536.237 112.646 535.082 112.778 534.686 113.042C534.356 113.24 534.191 114.098 534.191 115.616V122.942C534.191 124.46 534.356 125.351 534.686 125.615C535.016 125.879 536.171 126.011 538.151 126.011H564.881C568.709 126.011 571.778 125.582 574.088 124.724C576.464 123.8 578.015 122.909 578.741 122.051L576.761 133.931V137H516.866Z" fill="#DEDEDE"/>
</svg>
